<svg xmlns="http://www.w3.org/2000/svg" width="30" height="30" viewBox="0 0 30 30">
  <path fill="#0067F6" d="M29.4435307,15.0299251 L28.4454953,15.0299251 C28.4361294,7.78714363 22.7083333,1.84438959 15.4708059,1.56866778 L15.4708059,0.558296784 C15.4708059,0.282574912 15.2473958,0.0591648421 14.971674,0.0591648421 C14.6961806,0.0591648421 14.4727705,0.282574912 14.4727705,0.558296784 L14.4727705,1.56866778 C11.2470304,1.68608368 8.1718293,2.96166848 5.81003287,5.16173246 L4.04650947,3.39912281 L4.47711076,1.67694626 C4.53673246,1.4126462 4.37431468,1.14903146 4.11115678,1.08324199 C3.84822737,1.01768094 3.58072918,1.17415936 3.50900035,1.43548977 L3.22414105,2.57675439 L2.56784538,1.92045871 L2.96715094,0.715917427 C3.05418491,0.454130117 2.91255485,0.171326784 2.65076754,0.0840643275 C2.38898023,-0.00296964912 2.1061769,0.138660468 2.0189145,0.400447719 L1.77905702,1.13167029 L0.852750351,0.205363684 C0.656980994,0.0162189474 0.345851579,0.0189601754 0.153280351,0.211531462 C-0.0392909357,0.403874269 -0.0420321637,0.715232105 0.147112573,0.911001462 L1.07341924,1.83730813 L0.342196608,2.08127743 C0.172925789,2.13770105 0.0463724561,2.28001643 0.0105080702,2.45476971 C-0.0253563743,2.62975146 0.0347222222,2.81044409 0.168357076,2.92900222 C0.301763509,3.04733187 0.488395439,3.08570906 0.657666316,3.02951392 L1.86243602,2.6302083 L2.51850327,3.28239216 L1.37723865,3.56725146 C1.13304094,3.62847222 0.972679064,3.86216193 1.00328947,4.11229895 C1.03389988,4.3622076 1.24611661,4.55021018 1.49808117,4.5504386 C1.53897111,4.5504386 1.57963269,4.54541298 1.61938047,4.53536187 L3.3413286,4.10476058 L5.10508041,5.86828398 C2.78531614,8.35503474 1.49625368,11.6294316 1.49808117,15.0299251 L0.500045673,15.0299251 C0.22432386,15.0299251 0.00091374269,15.2533351 0.00091374269,15.529057 C0.00091374269,15.8045504 0.22432386,16.0279605 0.500045673,16.0279605 L1.53897111,16.0279605 C2.05523573,22.8661824 7.62015719,28.2284813 14.4727705,28.4911824 L14.4727705,29.5017818 C14.4727705,29.7772752 14.6961806,30.0006853 14.971674,30.0006853 C15.2473958,30.0006853 15.4708059,29.7772752 15.4708059,29.5017818 L15.4708059,28.4911824 C22.3231908,28.2284813 27.8881122,22.8661824 28.4043768,16.0279605 L29.4435307,16.0279605 C29.7190241,16.0279605 29.9424342,15.8045504 29.9424342,15.529057 C29.9424342,15.2533351 29.7190241,15.0299251 29.4435307,15.0299251 Z M15.4708059,27.4931469 L15.4708059,26.507447 C15.4708059,26.2319536 15.2473958,26.0085435 14.971674,26.0085435 C14.6961806,26.0085435 14.4727705,26.2319536 14.4727705,26.507447 L14.4727705,27.4931469 C8.17045871,27.2329587 3.05144374,22.3147387 2.53951936,16.0279605 L3.49415205,16.0279605 C3.7696455,16.0279605 3.99305556,15.8045504 3.99305556,15.529057 C3.99305556,15.2533351 3.7696455,15.0299251 3.49415205,15.0299251 L2.49611331,15.0299251 C2.49383222,11.8939602 3.67758591,8.87312684 5.80957602,6.57346491 L7.58155152,8.34544041 C3.9338907,12.3759594 4.16598135,18.5800439 8.10444082,22.3270742 C12.0426718,26.0741046 18.2506396,25.9966649 22.0945267,22.1527778 C25.9384137,18.3088907 26.0158535,12.1009229 22.2688231,8.16246345 C18.5217927,4.22423246 12.3179368,3.99214181 8.28718936,7.63980263 L6.5152138,5.86782713 C8.68923614,3.85393825 11.5115588,2.68320538 14.4727705,2.56670322 L14.4727705,3.55240316 C14.4727705,3.82789655 14.6961806,4.05130667 14.971674,4.05130667 C15.2473958,4.05130667 15.4708059,3.82789655 15.4708059,3.55240316 L15.4708059,2.56670322 C22.1573465,2.84151135 27.4390077,8.33767363 27.4474598,15.0299251 L26.4491959,15.0299251 C26.1737025,15.0299251 25.9502924,15.2533351 25.9502924,15.529057 C25.9502924,15.8045504 26.1737025,16.0279605 26.4491959,16.0279605 L27.4038286,16.0279605 C26.8919042,22.3147387 21.7728892,27.2329587 15.4708059,27.4931469 Z M9.69800807,10.461897 C7.22610561,13.3136878 7.45591193,17.6105629 10.2179276,20.1825201 C12.9799433,22.7544773 17.2823008,22.6777229 19.9508863,20.0091374 C22.6194719,17.3405519 22.6962263,13.0381944 20.124269,10.2761787 C17.5523118,7.51416304 13.2554368,7.28435673 10.4036458,9.75625912 L8.99282713,8.34544041 C12.6313505,5.08908994 18.2010691,5.32049526 21.5567891,8.86741591 C24.9127375,12.414565 24.8355263,17.9883954 21.3827211,21.4409722 C17.9301444,24.8937774 12.356314,24.9709887 8.80916485,21.6150402 C5.26224415,18.2593202 5.03083883,12.6896016 8.28718936,9.05107825 L9.69800807,10.461897 Z M12.1781342,12.942023 C11.9163468,13.2908443 11.7221765,13.6858096 11.6063596,14.1063596 L11.0414382,14.0360015 C10.7716557,14.0085892 10.5297423,14.2016173 10.4961623,14.4704861 C10.4623538,14.7393549 10.6496711,14.9860654 10.9176261,15.0260416 L11.4820906,15.0968567 C11.5170413,17.0090918 13.0834247,18.5375549 14.9958882,18.5259046 C16.9085801,18.5142544 18.4560033,16.9668311 18.4676535,15.0541392 C18.4793037,13.1416758 16.9508406,11.5752924 15.0386056,11.5403418 L14.9677906,10.9758772 C14.9495157,10.7956415 14.8350695,10.6396199 14.6687683,10.5678911 C14.5024671,10.4961623 14.3103527,10.520148 14.1668951,10.6304825 C14.0234375,10.7410453 13.9510234,10.9205958 13.9777504,11.0996894 L14.0481085,11.6646108 C13.6275585,11.7801992 13.2325932,11.9739126 12.8837719,12.2354715 L11.1088268,10.4602979 C13.5651956,8.3822186 17.2233644,8.61088269 19.4019554,10.9788468 C21.5805464,13.3465826 21.5042489,17.0111477 19.2290296,19.286367 C16.9538103,21.5613578 13.2892453,21.6376553 10.9215095,19.4592927 C8.55354532,17.2807018 8.32510965,13.6225329 10.4031889,11.1659357 L12.1781342,12.942023 Z M14.9097679,15.5249451 C14.9303271,15.527458 14.9511147,15.5288286 14.971674,15.529057 C15.1041667,15.529057 15.2309485,15.4762884 15.3246071,15.3828582 C15.3748629,15.3316886 15.4132401,15.2702394 15.4372258,15.2026225 C15.4424799,15.1827485 15.4463633,15.1626462 15.4488761,15.1423154 C15.4614401,15.0943439 15.4666941,15.0450018 15.4641813,14.9954313 C15.4641813,14.9860654 15.4682931,14.9776133 15.4666941,14.968019 L15.1674433,12.5543677 C16.4898574,12.6539656 17.5018275,13.773072 17.4684759,15.0989126 C17.4351243,16.4245249 16.3683297,17.4915479 15.042489,17.5246711 C13.7168768,17.5580227 12.5977705,16.5460526 12.4979441,15.2236385 L14.9097679,15.5249451 Z M14.2959613,13.6485746 L13.597405,12.9500182 C13.7771839,12.8346582 13.9711257,12.7425987 14.174205,12.6765808 L14.2959613,13.6485746 Z M13.5903235,14.3546692 L12.6187865,14.2315424 C12.6850329,14.0282346 12.776864,13.8345212 12.892224,13.6547423 L13.5903235,14.3546692 Z"/>
</svg>
