<svg xmlns="http://www.w3.org/2000/svg" width="30" height="30" viewBox="0 0 30 30">
  <path fill="#0067F6" d="M29.2039489,12.5525665 L27.1634674,12.1263885 C26.9048309,11.0337067 26.4974212,9.98176576 25.9524536,9.00009152 L26.8785095,8.07357785 C26.8830872,8.06900027 26.8844604,8.06259152 26.8890381,8.05801395 C26.9261169,8.01864621 26.9567871,7.9735565 26.9794464,7.92457582 L26.9794464,7.918396 L26.9853973,7.90557861 L29.9084473,1.41494754 C30.0803375,1.03591922 29.9995423,0.590057344 29.7054291,0.295486465 C29.4115448,0.000915527344 28.9659118,-0.0805664063 28.5864258,0.0904083398 L22.095108,3.01208496 L22.0809173,3.01803586 L22.0754242,3.02055357 C22.0664978,3.02444461 22.0605469,3.03291322 22.0513916,3.03794859 C22.0058441,3.05923465 21.963501,3.08738707 21.9264221,3.12149051 L20.9999085,4.0500641 C20.0182342,3.50509641 18.9662933,3.0976868 17.8736115,2.83905029 L17.4499512,0.796051055 C17.3517609,0.332336426 16.9429779,0.000686648437 16.4689636,-1.77635684e-15 L13.5314941,-1.77635684e-15 C13.0583954,0.00160217578 12.650528,0.333251953 12.5525665,0.796051055 L12.1263885,2.83538818 C10.8192444,3.13980105 9.57138059,3.65798953 8.43292236,4.36889648 L6.68907164,3.2244873 C6.29219057,2.96722412 5.76942445,3.02101137 5.43342592,3.35403445 L3.35357666,5.43411258 C3.02055357,5.77011105 2.96722412,6.29287723 3.22494504,6.68952943 L4.36889648,8.43292236 C3.65798953,9.57138059 3.13980105,10.8192444 2.83538818,12.1263885 L0.796051055,12.5525665 C0.333251953,12.650528 0.00160217578,13.0583954 -5.86197757e-14,13.5314941 L-5.86197757e-14,16.4689636 C0.000686648437,16.9429779 0.332336426,17.3517609 0.796051055,17.4499512 L2.83653258,17.8759003 C3.03886412,18.7353516 3.33343506,19.5705414 3.71543883,20.3665924 C3.38905336,20.4075622 3.08486941,20.5545044 2.85003662,20.7849884 L2.14645383,21.4910889 C1.69555664,21.9371796 1.57951354,22.6210785 1.85806277,23.1909943 L0.732421875,24.3180084 C-0.242156953,25.295105 -0.242156953,26.8764496 0.732421875,27.8535462 L2.14645383,29.2675781 C3.12355043,30.242157 4.70489502,30.242157 5.68199156,29.2675781 L6.80740359,28.1419372 C7.37709047,28.4209442 8.06098939,28.3055878 8.50753781,27.8549194 L9.22142027,27.1460724 C9.4507599,26.9119263 9.59678648,26.6088867 9.63706969,26.2834167 C10.4328919,26.6656494 11.2676239,26.9606781 12.1270752,27.1634674 L12.5530243,29.2039489 C12.6509857,29.666748 13.0586243,29.9981689 13.5314941,30 L16.4689636,30 C16.9429779,29.9993133 17.3517609,29.6676636 17.4499512,29.2039489 L17.8759003,27.1646118 C19.1832733,26.8601989 20.4311371,26.3420105 21.5695954,25.6311035 L23.313446,26.7755127 C23.7103271,27.0327759 24.2330933,26.9789886 24.5690918,26.6459655 L26.6489411,24.5658874 C26.9817352,24.2298889 27.0352936,23.7071228 26.7775726,23.3104706 L25.6333923,21.5670776 C26.3445282,20.4286194 26.8627167,19.1807556 27.1669007,17.8736115 L29.2064667,17.4474335 C29.6681214,17.3485565 29.9983978,16.9411468 30,16.4689636 L30,13.5314941 C29.9983978,13.0583954 29.666748,12.650528 29.2039489,12.5525665 L29.2039489,12.5525665 Z M23.4999847,15 C23.4947204,19.6923065 19.6923065,23.4947204 15,23.5000339 C13.7326813,23.5043335 12.4809265,23.2200622 11.3399505,22.668457 C9.58351137,21.8300629 8.16810609,20.4141998 7.32994078,18.6575317 C6.77947998,17.5170135 6.4956665,16.2664032 6.49996604,15 C6.50527957,10.3076935 10.3076935,6.50527957 15,6.50001527 C16.0233307,6.50001527 17.0379639,6.68815611 17.9935455,7.05459598 L15.5209351,9.52697754 C15.3533936,9.51095578 15.1824188,9.49996945 15,9.49996945 C11.9638825,9.50363156 9.50363156,11.9638825 9.49996604,15 C9.49882506,15.2593231 9.51690674,15.5184173 9.55444336,15.7749939 C9.9005127,18.1947327 11.8004608,20.0967407 14.2199707,20.4450989 C14.4783783,20.4828644 14.7390747,20.5011749 15,20.5000305 C18.0361175,20.4963684 20.4963684,18.0361175 20.5000305,15 C20.5000305,14.8175812 20.4890442,14.6466064 20.4730225,14.4790649 L22.945404,12.0064545 C23.3118439,12.9620361 23.4999847,13.9766693 23.4999847,15 Z M22.2795868,4.18258664 L23.6949921,5.60005189 L11.4864349,17.8065491 C11.0337067,17.244873 10.7247162,16.5813446 10.5864715,15.8734131 L22.2795868,4.18258664 Z M26.1669159,2.2769165 C26.3774872,2.57377623 26.6116333,2.85324094 26.8670654,3.1125641 C27.133255,3.37417605 27.4216461,3.61289977 27.7285767,3.82553098 L26.3648987,6.85295104 L23.147049,3.63510129 L26.1669159,2.2769165 Z M10.5260467,14.5214081 C10.7542419,12.4166107 12.4166107,10.7542419 14.5214081,10.5260467 L10.5260467,14.5214081 Z M19.4760132,15.4785919 C19.247818,17.5833893 17.5854492,19.2457581 15.480423,19.4739533 L19.4760132,15.4785919 Z M14.1265869,19.4114685 C13.4184265,19.2734528 12.7548981,18.9644623 12.1934509,18.5115052 L24.3999481,6.30500795 L25.8155823,7.72041322 L14.1265869,19.4114685 Z M29.0000153,1.00341797 L28.1439972,2.89993289 C27.9430389,2.74795535 27.7523804,2.5829315 27.5733948,2.40554812 C27.4026489,2.23365785 27.2424316,2.05123898 27.0938873,1.85943604 L29.0000153,1.00341797 Z M2.85507199,22.1999359 L3.55499268,21.4929199 C3.64883426,21.3981628 3.77677916,21.3448334 3.91021729,21.3448334 C4.04365541,21.3448334 4.17160031,21.3981628 4.26544189,21.4929199 L4.35653684,21.5840149 L3.23959348,23.2868958 L2.85346986,22.9000854 C2.75962828,22.8069305 2.70675656,22.6803589 2.70675656,22.5482941 C2.70675656,22.4162292 2.75962828,22.2894287 2.85346986,22.1965027 L2.85507199,22.1999359 Z M4.97497559,28.5605621 C4.69367982,28.8418579 4.31213379,29.0000153 3.91433719,29.0000153 C3.51631166,29.0000153 3.13476562,28.8418579 2.85346986,28.5605621 L1.43943785,27.1465301 C1.15814209,26.8652344 0.999984727,26.4836883 0.999984727,26.0856628 C0.999984727,25.6878662 1.15814209,25.3063202 1.43943785,25.0250244 L2.50007631,23.964386 L6.03561398,27.4999237 L4.97497559,28.5605621 Z M8.51303098,26.439972 L7.8000641,27.1465301 C7.60368346,27.3351288 7.29377748,27.3351288 7.09739684,27.1465301 L6.71150209,26.7604065 L8.41941832,25.6425476 L8.51005553,25.7334137 C8.70574951,25.9279632 8.70712277,26.2440491 8.51303098,26.439972 Z M29.0000153,16.4689636 L26.6429901,16.9610596 C26.4477539,17.0018005 26.2955475,17.1546936 26.2554932,17.3499298 C25.9677887,18.757782 25.4116058,20.0969696 24.6173859,21.2944794 C24.5075226,21.4613343 24.5075226,21.6776276 24.6173859,21.8444824 L25.9394074,23.8600159 L23.8600159,25.9394074 L21.8444824,24.6173859 C21.6776276,24.5075226 21.4613343,24.5075226 21.2944794,24.6173859 C20.0969696,25.4116058 18.757782,25.9677887 17.3499298,26.2554932 C17.1546936,26.2955475 17.0018005,26.4477539 16.9610596,26.6429901 L16.4689636,29.0000153 L13.5314941,29.0000153 L13.0389404,26.6429901 C12.9984284,26.4482116 12.846222,26.2960052 12.6514435,26.2554932 C11.4147949,26.0005188 10.2296448,25.5400085 9.14497377,24.8934173 C9.08454896,24.8616028 9.02000426,24.8210907 8.93302916,24.7634125 C8.86299135,24.7219849 8.79638672,24.6764374 8.71696471,24.6219635 C8.66226199,24.5853424 8.6009216,24.5594788 8.53660582,24.5459747 L8.53294371,24.5459747 C8.40499875,24.52034 8.27201842,24.5459747 8.16261293,24.6169281 L6.14250182,25.9394074 L4.06242369,23.8595581 L5.38490297,21.839447 C5.49728391,21.6652679 5.49041748,21.4395905 5.36750795,21.2725067 L5.3704834,21.2725067 C5.3249359,21.2059021 5.2793884,21.1395264 5.22056578,21.0429382 C5.18142703,20.9838867 5.1420593,20.9204865 5.0994873,20.8428955 L5.0994873,20.8390045 C4.45861816,19.7602845 4.00222781,18.5820007 3.74954227,17.3529053 C3.70903014,17.1583557 3.55682373,17.0061493 3.36204527,16.9654083 L0.999984727,16.4689636 L0.999984727,13.5314941 L3.3570099,13.0389404 C3.55224609,12.9981995 3.7044525,12.8453064 3.74450684,12.6500702 C4.03221129,11.242218 4.58839418,9.90303041 5.38261412,8.70552064 C5.4924774,8.53866574 5.4924774,8.32237242 5.38261412,8.15551758 L4.06105043,6.14044189 L6.14044189,4.06105043 L8.15597531,5.38307191 C8.32283021,5.4929352 8.53912354,5.4929352 8.70597838,5.38307191 C9.90325928,4.58862305 11.2424469,4.03244016 12.6500702,3.74450684 C12.8453064,3.7044525 12.9981995,3.55224609 13.0389404,3.3570099 L13.5314941,0.999984727 L16.4689636,0.999984727 L16.9610596,3.3570099 C17.0015716,3.55178836 17.153778,3.70399477 17.3485565,3.74450684 C18.3629608,3.95622252 19.3432617,4.30664062 20.2619934,4.78591922 L18.7651062,6.28303529 C17.5778961,5.76370242 16.2957001,5.49705504 15,5.50003055 C9.75563051,5.50575258 5.50575258,9.75563051 5.50003055,15 C5.49522398,16.4160919 5.81268311,17.8145599 6.42791748,19.0898895 C7.36450195,21.0520935 8.94561768,22.633667 10.9075928,23.5704803 C12.1833802,24.1868591 13.5829925,24.5045471 15,24.4999695 C20.2443695,24.4942474 24.4942474,20.2443695 24.4999695,15 C24.502945,13.7042999 24.2362976,12.4221039 23.7169647,11.2348938 L25.2140808,9.73800656 C25.6931305,10.6562805 26.0437775,11.6361237 26.2554932,12.6500702 C26.2960052,12.8448486 26.4482116,12.9968262 26.6429901,13.0375671 L29.0000153,13.5314941 L29.0000153,16.4689636 Z"/>
</svg>
