<svg xmlns="http://www.w3.org/2000/svg" width="30" height="30" viewBox="0 0 30 30">
  <g fill="#0067F6">
    <path d="M15.0034332,0 L14.9848938,0 C9.83184814,0.03250125 5.53756711,3.95622252 5.04158021,9.08546449 C4.7994232,11.8084717 5.41351318,13.5655975 6.63139342,15.8560181 C7.00813295,16.5222931 7.43865967,17.1567536 7.918396,17.7529907 C8.24798584,18.1848908 8.55857848,18.592987 8.83506773,19.029007 C9.45854186,20.0145721 9.85176088,21.1283112 9.98497008,22.286911 C9.28871156,22.6943207 8.90785219,23.482132 9.02069092,24.2807007 C9.13352965,25.0794983 9.71809389,25.7306671 10.4999542,25.9291077 L10.4999542,28.0000305 C10.5015564,28.6859894 10.8551788,29.3231964 11.4365387,29.6875763 C11.4660645,29.707489 11.4974213,29.7241974 11.5306091,29.7374725 C11.8256378,29.9073029 12.1595764,29.9977112 12.4999237,30 L17.5000763,30 C18.60466,30 19.5000458,29.1046143 19.5000458,28.0000305 L19.5000458,25.9291077 C20.2855682,25.7313538 20.8726501,25.0767517 20.9836579,24.274292 C21.0946655,23.4718323 20.7073975,22.6824188 20.0049591,22.2789001 C20.1397705,21.1230469 20.5329895,20.0125122 21.1550903,19.029007 C21.4315796,18.592987 21.7419434,18.1848908 22.0715332,17.7529907 C22.5512695,17.1567536 22.9817963,16.5222931 23.3585358,15.8560181 C24.5759583,13.5660553 25.190506,11.8089294 24.9490356,9.08546449 C24.452362,3.95553586 20.1571655,0.0318145898 15.0034332,0 L15.0034332,0 Z M11.7654419,28.6729431 C11.5953827,28.4900665 11.5006256,28.2497406 11.499939,28.0000305 L11.499939,26.000061 L16.3124085,26.000061 L11.7654419,28.6729431 Z M18.500061,28.0000305 C18.500061,28.5523224 18.0523682,29.0000153 17.5000763,29.0000153 L13.1829071,29.0000153 L18.2860565,26.000061 L18.500061,26.000061 L18.500061,28.0000305 Z M18.999939,25.0000763 L11.000061,25.0000763 C10.4477692,25.0000763 10.0000763,24.5523834 10.0000763,24.0000915 C10.0000763,23.4477997 10.4477692,23.0001068 11.000061,23.0001068 L18.999939,23.0001068 C19.5522308,23.0001068 19.9999237,23.4477997 19.9999237,24.0000915 C19.9999237,24.5523834 19.5522308,25.0000763 18.999939,25.0000763 Z M13.0000305,13.0000305 L11.499939,13.0000305 C10.9476471,13.0000305 10.4999542,12.5523376 10.4999542,12.0000458 C10.4999542,11.4477539 10.9476471,11.000061 11.499939,11.000061 L12.0000458,11.000061 C12.5523376,11.000061 13.0000305,11.4477539 13.0000305,12.0000458 L13.0000305,13.0000305 Z M15,14.0000153 L15.9999847,14.0000153 L15.9999847,21.9998932 L14.0000153,21.9998932 L14.0000153,14.0000153 L15,14.0000153 Z M22.4739075,15.3858948 C22.1225739,16.0045624 21.721344,16.5932464 21.2741089,17.1464538 C20.946579,17.5765228 20.6080628,18.0210114 20.3084564,18.4934235 C19.6355438,19.5570374 19.1992951,20.752945 19.0294647,21.9998932 L16.9999695,21.9998932 L16.9999695,14.0000153 L18.500061,14.0000153 C19.6046448,14.0000153 20.5000305,13.1046295 20.5000305,12.0000458 C20.5000305,10.8954621 19.6046448,10.0000763 18.500061,10.0000763 L17.9999542,10.0000763 C16.8953705,10.0000763 15.9999847,10.8954621 15.9999847,12.0000458 L15.9999847,13.0000305 L14.0000153,13.0000305 L14.0000153,12.0000458 C14.0000153,10.8954621 13.1046295,10.0000763 12.0000458,10.0000763 L11.499939,10.0000763 C10.3953552,10.0000763 9.49996945,10.8954621 9.49996945,12.0000458 C9.49996945,13.1046295 10.3953552,14.0000153 11.499939,14.0000153 L13.0000305,14.0000153 L13.0000305,21.9998932 L10.9590912,21.9998932 C10.789032,20.752945 10.3527832,19.5570374 9.67941281,18.4934235 C9.37957764,18.0210114 9.04151918,17.5765228 8.71398926,17.1464538 C8.26675418,16.5932464 7.86552428,16.0045624 7.51396178,15.3858948 C6.36108398,13.2179261 5.81405637,11.6619873 6.0369873,9.17404172 C6.45973207,4.54284668 10.3433991,0.997695937 14.9938202,0.997695937 C19.6442413,0.997695937 23.5276794,4.54284668 23.9504242,9.17404172 C24.1719818,11.662445 23.6270142,13.2186127 22.4739075,15.3858948 L22.4739075,15.3858948 Z M16.9999695,13.0000305 L16.9999695,12.0000458 C16.9999695,11.4477539 17.4476624,11.000061 17.9999542,11.000061 L18.500061,11.000061 C19.0523529,11.000061 19.5000458,11.4477539 19.5000458,12.0000458 C19.5000458,12.5523376 19.0523529,13.0000305 18.500061,13.0000305 L16.9999695,13.0000305 Z"/>
    <path d="M14.9954224 1.99996945C10.8899689 2.06680301 7.47642516 5.18028258 7.03353879 9.26239014 7.00927734 9.53750613 7.21252441 9.78012082 7.48741148 9.80461435L7.53204346 9.80461435C7.79159543 9.80552672 8.00880434 9.60754395 8.03192139 9.3489075 8.42147824 5.78018191 11.4058685 3.05900572 14.9954224 2.99995424 15.2716828 2.99995424 15.4955292 2.77610777 15.4955292 2.50007631 15.4955292 2.22381592 15.2716828 1.99996945 14.9954224 1.99996945zM0 10.0000763C0 10.2761078.223846406 10.4999542.500106797 10.4999542L2.99995424 10.4999542C3.27621457 10.4999542 3.50006104 10.2761078 3.50006104 10.0000763 3.50006104 9.72381592 3.27621457 9.49996945 2.99995424 9.49996945L.500106797 9.49996945C.223846406 9.49996945 0 9.72381592 0 10.0000763zM4.35791016 15.5669403L2.19291686 16.8170929C2.03704834 16.9056702 1.94046023 17.0711517 1.94022967 17.2505951 1.93977357 17.4300384 2.03544615 17.5957489 2.1910858 17.6852417 2.34672545 17.7745056 2.53829953 17.773819 2.69302371 17.6829529L4.85801695 16.4330292C5.09513854 16.2940979 5.17547607 15.9896851 5.03814697 15.7516479 4.90081787 15.5136108 4.59686279 15.4312134 4.35791016 15.5669403zM24.9595642 15.7500458C24.8215485 15.9892273 24.9032593 16.2950134 25.1424408 16.4330292L27.3074341 17.6829529C27.5463867 17.8189087 27.8501129 17.7362824 27.9876709 17.4982453 28.125 17.260437 28.0446625 16.9560241 27.8075409 16.8170929L25.6425476 15.5669403C25.4033661 15.4289245 25.0975799 15.5108643 24.9595642 15.7500458L24.9595642 15.7500458zM29.4998932 9.49996945L27.0000458 9.49996945C26.7237854 9.49996945 26.499939 9.72381592 26.499939 10.0000763 26.499939 10.2761078 26.7237854 10.4999542 27.0000458 10.4999542L29.4998932 10.4999542C29.7761536 10.4999542 30 10.2761078 30 10.0000763 30 9.72381592 29.7761536 9.49996945 29.4998932 9.49996945L29.4998932 9.49996945zM27.9899597 2.50007631C27.851944 2.2608948 27.5461579 2.17895508 27.3069763 2.31697084L25.141983 3.56689453C24.9861145 3.65570068 24.8895264 3.82118227 24.8890682 4.00062563 24.8888397 4.18006898 24.9845123 4.34577943 25.140152 4.43527219 25.2955628 4.52453613 25.4871369 4.52384947 25.6420898 4.4329834L27.8070831 3.18305971C28.0460358 3.04481508 28.1279754 2.73902895 27.9899597 2.50007631L27.9899597 2.50007631zM4.85755922 3.56689453L2.69256592 2.31697084C2.45361328 2.18124387 2.14988707 2.26364133 2.0123291 2.50167844 1.875 2.73971555 1.95533754 3.04389955 2.19245912 3.18305971L4.35745242 4.4329834C4.51217648 4.52384947 4.70375062 4.52453613 4.85939027 4.43527219 5.01502992 4.34577943 5.1107025 4.18006898 5.11047404 4.00062562 5.1100159 3.82118227 5.01342773 3.65570068 4.85755922 3.56689453z"/>
  </g>
</svg>
