<svg xmlns="http://www.w3.org/2000/svg" width="20" height="32" viewBox="0 0 20 32">
  <g fill="#0067F6">
    <path d="M3.15072117,31.5076923 L16.8040865,31.5076923 C18.5435096,31.5060096 19.953125,30.0963942 19.9548077,28.3569711 L19.9548077,3.15072117 C19.953125,1.41129809 18.5435096,0.00168269538 16.8040865,0 L3.15072117,0 C1.41129809,0.00168269538 0.00168269538,1.41129809 2.84217094e-14,3.15072117 L2.84217094e-14,28.3569711 C0.00168269538,30.0963942 1.41129809,31.5060096 3.15072117,31.5076923 Z M16.8040865,30.4574519 L3.15072117,30.4574519 C1.99062498,30.4574519 1.05024037,29.5170673 1.05024037,28.3569711 L1.05024037,27.3067308 L18.9045673,27.3067308 L18.9045673,28.3569711 C18.9045673,29.5170673 17.9641827,30.4574519 16.8040865,30.4574519 Z M1.05024037,5.25120191 L18.9045673,5.25120191 L18.9045673,26.2564904 L1.05024037,26.2564904 L1.05024037,5.25120191 Z M3.15072117,1.05024037 L9.45240382,1.05024037 L9.45240382,2.10048074 C9.45240382,2.39062498 9.6875,2.62572117 9.97740382,2.62572117 C10.2675481,2.62572117 10.5026442,2.39062498 10.5026442,2.10048074 L10.5026442,1.05024037 L16.8040865,1.05024037 C17.9641827,1.05024037 18.9045673,1.99062498 18.9045673,3.15072117 L18.9045673,4.20096154 L1.05024037,4.20096154 L1.05024037,3.15072117 C1.05024037,1.99062498 1.99062498,1.05024037 3.15072117,1.05024037 Z"/>
    <path d="M11.5528846 28.3569711L8.40216345 28.3569711C8.1120192 28.3569711 7.87692308 28.5920673 7.87692308 28.8819711 7.87692308 29.1721154 8.1120192 29.4072116 8.40216345 29.4072116L11.5528846 29.4072116C11.8427884 29.4072116 12.0778846 29.1721154 12.0778846 28.8819711 12.0778846 28.5920673 11.8427884 28.3569711 11.5528846 28.3569711zM10.8865385 7.18485575C11.0194711 7.04855766 11.0682692 6.85096154 11.0139423 6.66826923 10.9598558 6.48581729 10.8110577 6.34687502 10.625 6.30552886 10.4391827 6.26394228 10.2454327 6.32644234 10.11875 6.4685096L2.76682695 14.3454327C2.63389422 14.4817308 2.58509612 14.6793269 2.63918271 14.8620192 2.6935096 15.0444711 2.84230769 15.1834135 3.02836542 15.2247596 3.21418271 15.2663462 3.40793268 15.2038462 3.53461538 15.0617788L10.8865385 7.18485575zM13.7899039 6.47331729L3.28725963 18.0259615C3.09206732 18.240625 3.10793268 18.5728366 3.32259618 18.7680289 3.5370192 18.9632212 3.86923077 18.9475962 4.06442308 18.7329327L14.5670673 7.18004806C14.6932692 7.04134615 14.7358173 6.84567311 14.6788462 6.66682695 14.6216346 6.4879808 14.4735577 6.35336542 14.2901442 6.31346154 14.1069711 6.27355766 13.9161058 6.33437502 13.7899039 6.47331729zM12.7358173 11.7288462L8.53485575 16.4548077C8.34206732 16.6716346 8.36129809 17.0036058 8.57788462 17.1963942 8.79471151 17.3891827 9.12668271 17.3699519 9.31947114 17.1533654L13.5204327 12.4271634C13.6451923 12.2870192 13.6858173 12.0908654 13.6266827 11.9127404 13.5677884 11.7346154 13.4182692 11.6016827 13.234375 11.5637019 13.0507212 11.5257212 12.8605769 11.5887019 12.7358173 11.7288462L12.7358173 11.7288462z"/>
  </g>
</svg>
