<svg id="Layer_5" enable-background="new 0 0 64 64" height="512" viewBox="0 0 64 64" width="512" xmlns="http://www.w3.org/2000/svg" xmlns:xlink="http://www.w3.org/1999/xlink"><linearGradient id="SVGID_1_" gradientUnits="userSpaceOnUse" x1="32" x2="32" y1="63" y2="1"><stop offset="0" stop-color="#9f2fff"/><stop offset="1" stop-color="#0bb1d3"/></linearGradient><path d="m35 53h18v-18h-18zm2-16h14v14h-14zm-20.781-26-3.189 12.757 1.94.485 1.061-4.242h3.938l1.061 4.243 1.94-.485-3.189-12.758zm.312 7 1.25-5h.438l1.25 5zm8.469-7h6v2h-2v9h2v2h-6v-2h2v-9h-2zm32 5c0 1.654 1.346 3 3 3s3-1.346 3-3c0-1.302-.839-2.402-2-2.816v-2.184c0-1.654-1.346-3-3-3h-25v.014c-.076 0-.149-.013-.226-.01-.914-4.056-4.525-7.004-8.774-7.004-3.553 0-6.722 2.069-8.176 5.242-.593-.161-1.203-.242-1.824-.242-3.579 0-6.54 2.701-6.948 6.249-3.502.88-6.052 4.077-6.052 7.751 0 2.953 1.613 5.532 4 6.918v23.082c0 1.654 1.346 3 3 3h5.184c.414 1.161 1.514 2 2.816 2 1.654 0 3-1.346 3-3s-1.346-3-3-3c-1.302 0-2.402.839-2.816 2h-5.184c-.551 0-1-.449-1-1v-22.263c.641.166 1.308.263 2 .263v14c0 1.654 1.346 3 3 3h3.184c.414 1.161 1.514 2 2.816 2 1.654 0 3-1.346 3-3s-1.346-3-3-3c-1.302 0-2.402.839-2.816 2h-3.184c-.551 0-1-.449-1-1v-14h2v6c0 1.654 1.346 3 3 3h1.184c.414 1.161 1.514 2 2.816 2 1.654 0 3-1.346 3-3s-1.346-3-3-3c-1.302 0-2.402.839-2.816 2h-1.184c-.551 0-1-.449-1-1v-6h18v3c-1.103 0-2 .897-2 2h-6v6h6v2h-6v6h6v2h-6v6h6c0 1.103.897 2 2 2v6h6v-6h2v6h6v-6h2v6h6v-6c1.103 0 2-.897 2-2h6v-6h-6v-2h6v-6h-6v-2h6v-6h-6c0-1.103-.897-2-2-2v-6h-6v6h-2v-6h-3.765c1.102-1.371 1.765-3.109 1.765-5 0-2.367-1.055-4.519-2.749-6h7.749c.551 0 1 .449 1 1v2.184c-1.161.414-2 1.514-2 2.816 0 1.654 1.346 3 3 3s3-1.346 3-3c0-1.302-.839-2.402-2-2.816v-2.184c0-1.654-1.346-3-3-3h-10.696c-.359-.757-.839-1.431-1.422-2h20.118c.551 0 1 .449 1 1v2.184c-1.161.414-2 1.514-2 2.816zm-41 35c.551 0 1 .449 1 1s-.449 1-1 1-1-.449-1-1 .449-1 1-1zm2-8c.551 0 1 .449 1 1s-.449 1-1 1-1-.449-1-1 .449-1 1-1zm2-8c.551 0 1 .449 1 1s-.449 1-1 1-1-.449-1-1 .449-1 1-1zm7 2v-2h4v2zm0 8v-2h4v2zm0 8v-2h4v2zm25-32c-.551 0-1-.449-1-1s.449-1 1-1 1 .449 1 1-.449 1-1 1zm-17 7h2v3h-2zm4 3v-3.263c.71-.184 1.381-.46 2-.819v4.082zm-2 30h-2v-4h2zm8 0h-2v-4h2zm8 0h-2v-4h2zm8-10v2h-4v-2zm0-8v2h-4v-2zm0-8v2h-4v-2zm-5.999 20h-22.001v-22h22zm-4.001-28h2v4h-2zm-6 4h-2v-4h2zm-7.223-17.479.166.535.543.138c2.658.678 4.514 3.066 4.514 5.806 0 3.309-2.691 6-6 6h-28c-3.309 0-6-2.691-6-6 0-2.962 2.212-5.512 5.145-5.931l.855-.202v-.867c0-2.757 2.243-5 5-5 .692 0 1.365.141 2.001.42l1.008.441.344-1.045c.946-2.88 3.617-4.816 6.647-4.816 3.565 0 6.554 2.669 6.952 6.21l.119 1.06 1.05-.187c.313-.056.6-.083.879-.083 2.206 0 4.126 1.415 4.777 3.521zm22.223 3.479c-.551 0-1-.449-1-1s.449-1 1-1 1 .449 1 1-.449 1-1 1z" fill="url(#SVGID_1_)"/></svg>