<svg xmlns="http://www.w3.org/2000/svg" width="30" height="30" viewBox="0 0 30 30">
  <g fill="#F9B407">
    <path d="M29.0000153,16.5000915 L25.5999756,16.4964294 C26.0380554,15.737915 26.1211395,14.8251343 25.8270264,14.0000153 L26.000061,14.0000153 C26.5523529,14.0000153 27.0000458,13.5523224 27.0000458,13.0000305 L27.0000458,2.50007631 C26.9984436,1.11991881 25.880127,0.00160217578 24.4999695,0 L2.50007631,0 C1.11991881,0.00160217578 0.00160217578,1.11991881 1.13686838e-13,2.50007631 L1.13686838e-13,24.0000915 C0.00160217578,25.3800202 1.11991881,26.4983368 2.50007631,26.499939 L13.0000305,26.499939 C13.5523224,26.499939 14.0000153,26.0522461 14.0000153,25.4999542 L14.0190124,22.3370361 C14.3344116,22.4466705 14.6660614,22.5018311 15,22.5 C16.0171509,22.4990845 16.9642639,21.9813538 17.5140381,21.1255646 C17.7664948,21.0289764 17.8514099,21.0060882 17.8424835,21.0060882 C18.844986,20.9390259 19.745636,21.6151429 19.9610138,22.5965882 C20.0832367,23.1891632 19.929657,23.805542 19.5435333,24.2715454 C19.0068054,24.9053192 18.1393433,25.1509095 17.3499298,24.8920441 C17.0352173,24.7833252 16.6873169,24.8325348 16.4149475,25.0241089 C16.1533356,25.2083587 15.9983825,25.5088806 15.9999847,25.8290863 L15.9999847,29.0000153 C15.9999847,29.5523071 16.4476776,30 16.9999695,30 L27.4999237,30 C28.8800812,29.9983978 29.9983978,28.8800812 30,27.4999237 L30,17.5000763 C30,16.9477845 29.5523071,16.5000915 29.0000153,16.5000915 L29.0000153,16.5000915 Z M26.000061,2.50007631 L26.000061,13.0000305 L25.2355957,13.0000305 C24.6585846,12.350235 23.8263703,11.9849396 22.9575348,12.0000458 C23.0628204,11.360321 22.963028,10.703888 22.6725769,10.124588 C22.2697448,9.33219908 21.5329743,8.76228334 20.6650543,8.57139586 C19.7749329,8.37043764 18.8415527,8.58512877 18.1285858,9.1548157 C17.4156189,9.72450258 17.0004272,10.5873871 16.9999695,11.499939 C16.9976807,12.0300293 17.1446228,12.54982 17.4245453,13.0000305 L14.0029907,13.0000305 L14.0219879,9.83757018 C15.4879761,10.3431702 17.0972443,9.64462277 17.7289581,8.2285309 C17.855072,7.95959473 17.9395294,7.6728058 17.9788971,7.37846373 C18.1109619,6.34483336 17.6973724,5.31669615 16.8859863,4.66255189 C16.0746002,4.00863645 14.9821472,3.82255553 14.0000153,4.17091371 L14.0000153,0.999984727 L24.4999695,0.999984727 C25.3285218,0.999984727 26.000061,1.67152406 26.000061,2.50007631 Z M20.4244995,16.5000915 L16.9999695,16.5000915 C16.7333221,16.4998627 16.47789,16.6067505 16.2904358,16.7964935 C15.5738068,16.4529419 14.750061,16.4073944 14.0000153,16.6699219 L14.0000153,14.0000153 L17.4245453,14.0000153 C17.7751922,14.0036774 18.1002045,13.8173675 18.2746124,13.5129547 C18.451767,13.1977845 18.4487915,12.8125763 18.2670593,12.4999237 C17.8672028,11.809845 17.9157257,10.947876 18.3906555,10.3070068 C18.8653564,9.6661377 19.675827,9.36859131 20.4524231,9.55009459 C21.0253143,9.67483523 21.5119171,10.0504303 21.7781067,10.5729675 C22.0381165,11.0939026 22.0621491,11.701355 21.8444824,12.2415161 C20.7268524,12.7015686 19.9980926,13.7915039 19.9999237,15 C19.9976349,15.5300903 20.1448059,16.049881 20.4244995,16.5000915 L20.4244995,16.5000915 Z M0.999984727,2.50007631 C0.999984727,1.67152406 1.67152406,0.999984727 2.50007631,0.999984727 L13.0000305,0.999984727 L13.0000305,4.17091371 C12.9977417,4.49066162 13.1517792,4.79118346 13.4124756,4.97589111 C13.6846161,5.16838072 14.0327454,5.21759033 14.3474579,5.10795592 C15.1142121,4.8550415 15.9580993,5.07797238 16.5000915,5.6764984 C16.7852783,5.99601744 16.9587708,6.399765 16.9944763,6.82640074 C17.0066071,6.97036746 17.0038605,7.11524965 16.9860077,7.25852965 C16.8587494,8.17222594 16.1304474,8.88473508 15.2140045,8.9920807 C14.9214935,9.02252197 14.6257782,8.98841859 14.3479157,8.8920593 C14.0338898,8.78265381 13.6859894,8.83186342 13.4145355,9.02389523 C13.1531525,9.20814516 12.9981995,9.50866699 13.0000305,9.8284149 L13.0000305,13.0025482 L9.58557129,13.0194855 C9.61189271,12.973938 9.62791441,12.9240417 9.65240479,12.8775787 C10.0632477,12.1037292 10.1122284,11.1882019 9.78607178,10.3752136 C9.45991518,9.56199645 8.79203795,8.93394469 7.96051025,8.65859988 C7.8403473,8.61740109 7.71743777,8.58398438 7.59292605,8.55857848 C7.48283385,8.53775027 7.3715973,8.52287291 7.25990297,8.51394656 L7.25395201,8.51394656 C7.17041016,8.50708008 7.08755496,8.50204465 7.00401305,8.50204465 C6.98890688,8.50204465 6.9744873,8.50547789 6.95892334,8.50593568 C6.81884766,8.50822447 6.67900084,8.52012633 6.54052734,8.54141238 C6.49497984,8.54850768 6.45103453,8.55857848 6.40640262,8.56750488 C6.28944398,8.59085086 6.17385867,8.6210632 6.06056215,8.65791322 C6.02943422,8.66798402 5.99807742,8.67553711 5.96740723,8.68652344 C5.83145145,8.73733523 5.69915771,8.79776004 5.57144168,8.86756898 C5.53710938,8.88656613 5.5025482,8.90647887 5.46844482,8.92707826 C5.33935547,9.00192258 5.21621707,9.08683775 5.09994504,9.18045047 L5.09193422,9.18594363 C5.00564578,9.25735477 4.92324832,9.33334348 4.8449707,9.41345215 C4.30206299,9.9721527 3.99879457,10.7208252 3.99993896,11.499939 C3.99948117,11.9718933 4.11849973,12.4362946 4.34555051,12.8501129 C4.37210086,12.9000091 4.39544678,12.9499054 4.42405699,13.0000305 L0.999984727,13.0000305 L0.999984727,2.50007631 Z M14.3499756,21.3924408 C14.0357208,21.2823486 13.6878204,21.3311004 13.4159088,21.5235901 C13.1536102,21.7080688 12.9981995,22.0092773 13.0000305,22.3299408 L13.0000305,25.4999542 L2.50007631,25.4999542 C1.67152406,25.4999542 0.999984727,24.8284149 0.999984727,24.0000915 L0.999984727,14.0000153 L4.42497252,14.0000153 C4.51148988,14.0000153 4.59732059,13.9888001 4.68109131,13.9670563 C4.93080141,13.9009095 5.14366148,13.7372589 5.27206418,13.5129547 C5.41122434,13.2664489 5.44029234,12.9727936 5.35240172,12.7033997 C5.33134459,12.6299286 5.30227664,12.5589752 5.26611328,12.4914551 C5.2226257,12.417984 5.18440248,12.3413086 5.1514435,12.2625732 C4.86900328,11.5779877 4.9875641,10.7933807 5.46020508,10.2232361 C5.93261719,9.65309145 6.68151855,9.39056396 7.40638734,9.54093932 C7.50205992,9.55947879 7.59613037,9.58534242 7.68791197,9.61807254 C8.23242188,9.81582645 8.66386412,10.2410889 8.86940004,10.7826233 C9.07516477,11.3243866 9.0346527,11.9286346 8.7583923,12.4378968 C8.74557492,12.4623871 8.7375641,12.4880218 8.72291566,12.5125122 C8.68263246,12.5825501 8.65127566,12.6571655 8.62953188,12.7349854 C8.62953188,12.7400208 8.62495424,12.7445984 8.62358092,12.7494049 C8.61946107,12.7640534 8.62358092,12.7789307 8.61740109,12.7935791 C8.56361391,13.0302429 8.60069273,13.2788086 8.72154234,13.4896088 C8.73252867,13.5090638 8.74900816,13.5230255 8.76091002,13.539505 C8.94561768,13.824234 9.26078795,13.9972687 9.59999086,14.0000153 L13.0000305,14.0000153 L13.0000305,16.6699219 C12.9977417,16.9903564 13.1520081,17.2913361 13.4133911,17.4765015 C13.6864471,17.6694489 14.0359497,17.7179718 14.3508911,17.6065063 C14.899292,17.4261475 15.4982757,17.4849701 16.0009003,17.7685547 L16.0009003,20.2500915 C16.0029602,20.5309296 16.1240387,20.7978058 16.3339233,20.9845734 C15.9683991,21.3153076 15.4930114,21.4988708 15,21.5000153 C14.7789001,21.5013885 14.5589447,21.4649964 14.3499756,21.3924408 Z M29.0000153,27.4999237 C29.0000153,28.3284759 28.3284759,29.0000153 27.4999237,29.0000153 L16.9999695,29.0000153 L17.0235443,25.8384704 C18.1759644,26.2332916 19.4526673,25.8920288 20.2544403,24.9748993 C21.0559845,24.0575409 21.223526,22.7467346 20.6783295,21.657486 C20.132904,20.5682373 18.9832306,19.9168396 17.7685547,20.009079 C17.5019074,20.0514221 17.243042,20.1326752 16.9999695,20.2500915 L16.9999695,17.5000763 L20.4244995,17.5000763 C20.7751465,17.5035095 21.1003876,17.3171997 21.2745667,17.0130158 C21.4517212,16.6978454 21.4487457,16.3124085 21.2670135,15.9999847 C20.9662628,15.4767609 20.9177399,14.8459625 21.1351776,14.2829132 C21.3523864,13.7200928 21.8122101,13.2854462 22.3864746,13.1000519 L22.3931122,13.1000519 C22.5885773,13.0343628 22.7936554,13.0004883 23.0001068,13.0000305 C23.6290741,13.0020905 24.2209625,13.2980347 24.5999909,13.7999725 C24.8622894,14.1448975 25.0028229,14.5667267 25.0000763,15 C24.9998474,15.3499603 24.907608,15.6937409 24.7329712,15.9970093 C24.5510101,16.3108063 24.5491791,16.6973877 24.7279358,17.0130158 C24.9021149,17.3171997 25.227356,17.5035095 25.5780029,17.5000763 L29.0000153,17.5000763 L29.0000153,27.4999237 Z"/>
    <path d="M2.50007631 15C2.22381592 15 1.99996945 15.2238464 1.99996945 15.5001068L1.99996945 23.4999847C1.99996945 23.7762451 2.22381592 24.0000915 2.50007631 24.0000915 2.77610777 24.0000915 2.99995424 23.7762451 2.99995424 23.4999847L2.99995424 15.5001068C2.99995424 15.2238464 2.77610777 15 2.50007631 15zM2.50007631 2.50007631C2.22381592 2.50007631 1.99996945 2.72392271 1.99996945 2.99995424L1.99996945 10.0000763C1.99996945 10.2761078 2.22381592 10.4999542 2.50007631 10.4999542 2.77610777 10.4999542 2.99995424 10.2761078 2.99995424 10.0000763L2.99995424 2.99995424C2.99995424 2.72392271 2.77610777 2.50007631 2.50007631 2.50007631z"/>
  </g>
</svg>
