<svg xmlns="http://www.w3.org/2000/svg" width="30" height="30" viewBox="0 0 30 30">
  <path fill="#FD5E5B" d="M27.3320998,12.325932 L25.3335161,12.1212537 C24.3268001,12.0278235 23.533443,11.2230446 23.4541758,10.214958 L23.4541758,9.34872988 C23.8603344,8.79751462 24.1534174,8.17137246 24.3165205,7.5063962 C24.8583699,7.30171784 25.1000549,6.7379386 25.3524763,6.1469755 L25.3748629,6.09717655 C25.8694262,4.94494702 25.5512153,3.73675076 24.6265077,3.33607456 C24.5675713,3.31094667 24.5074927,3.28878836 24.4462719,3.26959977 C24.3354806,1.4683845 22.8677814,0.0495705263 21.0638249,0 L19.856314,0 C18.0528143,0.0500274269 16.5860289,1.4683845 16.4752375,3.26914292 C16.4051078,3.29038743 16.3358918,3.3152869 16.2682749,3.3433845 C15.367553,3.73332421 15.0491137,4.9403783 15.5436769,6.09306468 L15.5660636,6.14560491 C15.8187135,6.73633953 16.0601699,7.30034725 16.6020194,7.50479713 C16.7621527,8.15515351 17.0463268,8.76827485 17.4390077,9.31080959 C16.9789382,9.09470942 16.477065,8.98277596 15.9687957,8.98254749 L13.9727248,8.98254749 C13.2584064,8.98231906 12.5612208,9.20253105 11.9766539,9.61325842 L11.9766539,9.34872988 C12.3825841,8.79751462 12.675667,8.17137246 12.8389985,7.5063962 C13.380848,7.30171784 13.6223044,6.7379386 13.8749543,6.1469755 L13.897341,6.09717655 C14.3919042,4.94494702 14.0734649,3.73675076 13.1487573,3.33607456 C13.0900494,3.31094667 13.0297423,3.28878836 12.96875,3.26959977 C12.8579587,1.4683845 11.3902595,0.0495705263 9.58630298,0 L8.37856363,0 C6.5752924,0.0500274269 5.10850696,1.4683845 4.99771567,3.26914292 C4.92758591,3.29038743 4.85836988,3.3152869 4.79075292,3.3433845 C3.89231544,3.73332421 3.57159175,4.9403783 4.06615497,6.09306468 L4.08854164,6.14560491 C4.3409631,6.73633953 4.58264801,7.30034725 5.12449743,7.50479713 C5.28805737,8.17045871 5.58159719,8.79705778 5.98821275,9.34872988 L5.98821275,10.214958 C5.98866959,11.1992873 5.24259871,12.0232547 4.26329497,12.1203399 L2.6094207,12.325932 C1.12504567,12.4728161 -0.00456871345,13.7237299 -1.38091346e-05,15.2151864 L-1.38091346e-05,17.5607639 C0.00114217544,18.334704 0.628198129,18.9619883 1.40236661,18.962902 L10.9550895,18.962902 C11.1536001,19.359238 11.4096765,19.7242781 11.7146381,20.0459156 C11.6977339,21.203856 10.8086623,22.1619152 9.65506211,22.2649397 L8.40757491,22.4986294 C6.74707602,22.6660727 5.48474047,24.0659265 5.48930924,25.7346491 L5.48930924,28.4096309 C5.49022292,29.2552997 6.17552994,29.9406067 7.02119883,29.9415205 L22.9203216,29.9415205 C23.7659905,29.9406067 24.451526,29.2552997 24.4522112,28.4096309 L24.4522112,25.7346491 C24.4606634,24.080318 23.2182018,22.6868604 21.5739218,22.5061678 L20.2464821,22.2605994 C19.1068165,22.1452394 18.236705,21.1908351 18.2268823,20.0454587 C18.5311586,19.7235929 18.7863213,19.3590095 18.984375,18.962902 L28.5393823,18.962902 C29.3133223,18.9619883 29.9403783,18.334704 29.9415357,17.5607639 L29.9415357,15.2151864 C29.9463176,13.7237299 28.8164748,12.4728161 27.3320998,12.325932 Z M24.467288,12.9287737 C23.3490954,13.6001462 22.0700841,13.9567343 20.7659448,13.9601608 C20.6576663,13.7052266 20.4730903,13.4900402 20.2375731,13.3445267 C20.0022843,13.2108918 19.7311312,13.1540113 19.462034,13.1818805 L19.462034,12.4755574 C19.4627193,11.8105812 19.2719755,11.1593111 18.913103,10.5994152 C19.3909905,10.8474964 19.9214181,10.9774763 20.4600695,10.9786184 C21.1787281,10.9767909 21.8788834,10.7499543 22.4620796,10.3298611 C22.5628198,11.5145285 23.3470395,12.5308388 24.467288,12.9287737 L24.467288,12.9287737 Z M19.4535819,23.1048977 L17.2162829,25.1564784 L16.6294316,23.7899763 L18.5087719,22.6137609 C18.7938596,22.8294042 19.1132127,22.995477 19.4535819,23.1048977 Z M11.4277229,22.6112482 L13.3114035,23.7899763 L12.7252375,25.1564784 L10.4840552,23.1048977 C10.8237391,22.9936495 11.1426352,22.8268915 11.4277229,22.6112482 Z M15.4698922,24.9513432 C15.7453856,24.9513432 15.9687957,25.1747533 15.9687957,25.4502467 L15.9687957,25.9493787 C15.9687957,26.224872 15.7453856,26.4482822 15.4698922,26.4482822 L14.4718567,26.4482822 C14.1961349,26.4482822 13.9727248,26.224872 13.9727248,25.9493787 L13.9727248,25.4502467 C13.9727248,25.1747533 14.1961349,24.9513432 14.4718567,24.9513432 L15.4698922,24.9513432 Z M14.5287372,27.4463176 L15.4130117,27.4463176 L15.9729075,28.943485 L13.9688414,28.943485 L14.5287372,27.4463176 Z M15.7392178,23.1706871 C15.7252833,23.1798246 15.7177449,23.1958151 15.7049525,23.2060947 C15.6668037,23.2344207 15.6332237,23.2680007 15.6051261,23.3059211 C15.5959887,23.3180281 15.5820541,23.3244243 15.5745157,23.3369883 L15.2033077,23.9533077 L14.7382127,23.9533077 L14.3644919,23.3353892 C14.3569536,23.3230537 14.343019,23.3164291 14.33411,23.3045504 C14.305784,23.2664017 14.272204,23.2328216 14.2342836,23.204724 C14.2212628,23.194216 14.2137244,23.1782255 14.1997898,23.1693165 L12.1292489,21.8718019 C12.3588268,21.5414839 12.5248995,21.1714181 12.6187865,20.7803363 C14.0558754,21.6801444 15.8803911,21.6801444 17.3172515,20.7803363 C17.411367,21.171875 17.5769828,21.5426261 17.8056469,21.8738578 L15.7392178,23.1706871 Z M18.8368056,16.5391995 C18.8251553,16.5421692 18.8167032,16.5501644 18.8057383,16.5542763 C18.7733005,16.5656981 18.7424616,16.5810033 18.7134503,16.5995065 C18.6867233,16.613898 18.6615954,16.6305738 18.6380665,16.649534 C18.6149945,16.6712354 18.5939784,16.6952211 18.5752467,16.7208059 C18.5551444,16.7447917 18.5373264,16.7703765 18.5222496,16.7977888 C18.5096857,16.8254295 18.4994061,16.8544408 18.4918677,16.8841374 C18.4813596,16.9163468 18.4742781,16.9499269 18.4708516,16.9837354 C18.4708516,16.9949287 18.4639985,17.0042946 18.4639985,17.0152595 C18.4633132,18.2632036 17.7969664,19.4161184 16.7157804,20.0395194 C15.6348227,20.6631488 14.3030427,20.6624635 13.2227705,20.0379204 C12.1422697,19.4133772 11.477065,18.2597771 11.4775219,17.011833 C11.4775219,17.0017818 11.4720395,16.9933297 11.4715826,16.9832785 C11.4681561,16.9503837 11.461303,16.9177175 11.4512518,16.8859649 C11.4245249,16.7626096 11.3448008,16.6570724 11.2330958,16.598136 C11.2040844,16.5791758 11.1730172,16.5631853 11.1408077,16.5506213 C11.1321272,16.5455958 11.1229898,16.541027 11.1138523,16.5371436 C10.5089547,16.2244152 10.0884046,15.6432749 9.98058298,14.9707602 C9.98058298,14.5764802 10.0653326,14.2907073 10.207648,14.2052723 C10.2494518,14.1840278 10.2958242,14.1732913 10.3428819,14.1737482 C10.415296,14.589958 10.5596674,14.9901773 10.7700567,15.3565881 C10.8529788,15.5180921 11.017224,15.6218019 11.198602,15.6272843 C11.3802083,15.6327668 11.5503929,15.5393366 11.6431378,15.3830866 C11.7356543,15.2268366 11.7361111,15.0326663 11.64428,14.8759594 C11.5206963,14.6504935 11.4229258,14.4115497 11.3532529,14.1639254 C11.3619335,14.1538743 11.3674159,14.1419956 11.3754112,14.1314876 C11.383178,14.1209795 11.3966557,14.1088725 11.4046509,14.0953947 C11.7532438,13.9989949 12.1144006,13.957648 12.4755574,13.9727248 C13.8185307,13.9727248 15.0057109,13.1103801 15.7038103,12.4691612 C16.0578856,13.4027778 16.9670596,14.007447 17.9648666,13.9727248 C18.1471582,13.9574196 18.3303637,13.9809485 18.5028326,14.0414839 C18.5069444,14.0506213 18.5142544,14.0565607 18.5188231,14.0650128 C18.520879,14.0732365 18.5233918,14.0814602 18.5263615,14.0894554 L18.5313871,14.0953947 C18.520879,14.4307383 18.4384137,14.7599141 18.2892453,15.0605354 C18.1896473,15.317754 18.3173428,15.6069536 18.5745614,15.7065515 C18.8315515,15.8061495 19.1207511,15.6784539 19.2205775,15.4214638 C19.3935033,15.0260416 19.4978984,14.604121 19.5294225,14.1737482 C19.5972679,14.1623264 19.6669408,14.1721491 19.7290753,14.2018457 C19.8736751,14.2870523 19.9600237,14.5794499 19.9600237,14.9837811 C19.8533443,15.6510416 19.4364492,16.2280702 18.8368056,16.5391995 L18.8368056,16.5391995 Z M17.0502102,6.58717105 C16.8619792,6.57871895 16.7667215,6.41196088 16.4852888,5.75429462 L16.4624451,5.70084064 C16.1784996,5.03974784 16.3326937,4.4222862 16.6588999,4.26375181 C16.6833425,4.27722953 16.7089273,4.29162099 16.7402229,4.30669772 C16.8948739,4.38527959 17.0794499,4.37819813 17.2274763,4.28750912 C17.3755026,4.1970486 17.4657346,4.03600146 17.4659631,3.86239035 L17.4659631,3.4932383 C17.455455,2.15140713 18.5151681,1.04509322 19.856314,0.998035439 L21.0638249,0.998035439 C22.4049708,1.04509322 23.4646839,2.15140713 23.4541758,3.4932383 L23.4541758,3.86239035 C23.4541758,4.03600146 23.5444079,4.19727708 23.6924342,4.28796602 C23.8404605,4.37865497 24.0250365,4.38596491 24.1796875,4.30715462 C24.2086988,4.29253474 24.2347405,4.27860012 24.2616959,4.26420871 C24.5844755,4.41383404 24.7436952,5.03472222 24.4576937,5.70198281 L24.4348502,5.75475146 C24.1534174,6.41241778 24.0579313,6.57917579 23.8699287,6.58762795 C23.6350968,6.59882129 23.4400128,6.77220398 23.4014071,7.00383772 C23.1546966,8.46696819 21.9889894,9.98058298 20.4600695,9.98058298 C18.9311495,9.98058298 17.7652138,8.46696819 17.5187317,7.00383772 C17.4803545,6.7719755 17.285042,6.59836439 17.0502102,6.58717105 L17.0502102,6.58717105 Z M13.9727248,9.98058298 L15.9687957,9.98058298 C17.3462628,9.98218199 18.4623995,11.0983187 18.4639985,12.4755574 L18.4639985,13.0080409 C18.2986111,12.9847405 18.1318531,12.9735471 17.9648666,12.9746894 C16.617553,12.9746894 16.4784357,11.6063596 16.4679276,11.4462263 C16.4679276,11.4425713 16.4679276,11.4396016 16.4679276,11.4361751 C16.4617599,11.3827211 16.44714,11.3306378 16.4245249,11.281981 C16.422012,11.2719298 16.4190424,11.2621071 16.4153874,11.2525128 C16.3893457,11.2043129 16.3557657,11.1606816 16.3155611,11.1232182 C16.3082511,11.1163651 16.3036824,11.1067708 16.296144,11.1003746 C16.2886056,11.09375 16.2918037,11.0932931 16.2881488,11.0903235 C16.2324105,11.0610837 16.1764437,11.0316155 16.120477,11.0026042 C16.0942069,10.9966649 16.0674799,10.9932383 16.0407529,10.9920961 C16.0074013,10.9834156 15.973136,10.9788468 15.9388706,10.9786184 C15.9349872,10.9786184 15.9317891,10.9811312 15.9274488,10.9815881 C15.8934119,10.9870705 15.8600603,10.9957511 15.8276225,11.0074013 C15.7974689,11.0137975 15.7677723,11.0227065 15.7392178,11.0343567 C15.7200292,11.0473775 15.701526,11.0615406 15.6839364,11.0768457 C15.6492142,11.0992325 15.6172332,11.1255026 15.5886787,11.1551992 C15.5886787,11.1581689 15.582511,11.1593111 15.5806835,11.1622807 C15.5656067,11.1800987 14.0835161,12.9737756 12.4746436,12.9737756 C12.1404422,12.9689784 11.8064693,12.9934211 11.4766082,13.0466465 L11.4766082,12.4755574 C11.4782073,11.0978619 12.5950292,9.98172515 13.9727248,9.98058298 L13.9727248,9.98058298 Z M5.57268825,6.58717105 C5.38445725,6.57871895 5.28919953,6.41196088 5.00776678,5.75429462 L4.9846948,5.70084064 C4.70074924,5.03974784 4.85494333,4.4222862 5.18137789,4.26375181 C5.20582053,4.27722953 5.23140532,4.29162099 5.26270105,4.30669772 C5.41735199,4.38527959 5.60169953,4.37819813 5.74972585,4.28750912 C5.89775216,4.1970486 5.98821275,4.03600146 5.98821275,3.86239035 L5.98821275,3.4932383 C5.97770468,2.15140713 7.0376462,1.04509322 8.37856363,0.998035439 L9.58630298,0.998035439 C10.9274488,1.04509322 11.9871619,2.15140713 11.9766539,3.4932383 L11.9766539,3.86239035 C11.9766539,4.03600146 12.066886,4.19727708 12.2149123,4.28796602 C12.3629386,4.37865497 12.5475146,4.38596491 12.7021656,4.30715462 C12.7311769,4.29253474 12.7569901,4.27860012 12.7839456,4.26420871 C13.1069536,4.41383404 13.2661732,5.03472222 12.9801718,5.70198281 L12.9570998,5.75475146 C12.675667,6.41241778 12.5804094,6.57917579 12.3924068,6.58762795 C12.1575749,6.59882129 11.9624909,6.77220398 11.9236568,7.00383772 C11.6771747,8.46696819 10.5114675,9.98058298 8.98254749,9.98058298 C7.45339912,9.98058298 6.28769187,8.46696819 6.04120982,7.00383772 C6.00260415,6.7719755 5.80752012,6.59836439 5.57268825,6.58717105 Z M6.97596854,10.3257492 C8.17160088,11.1938048 9.78983918,11.1938048 10.9854715,10.3257492 C10.9893549,10.4262609 10.9991777,10.5260874 11.0149397,10.6252284 C10.6652047,11.1789565 10.4794865,11.8206323 10.4794865,12.4755574 L10.4794865,13.1827942 C10.2071912,13.1546966 9.93306836,13.2127193 9.69549526,13.348867 C9.46089181,13.4952942 9.27745795,13.7107091 9.17055006,13.9656433 C9.10773029,13.9656433 9.04582421,13.9727248 8.98254749,13.9727248 C7.59388708,14.0097313 6.22213088,13.6597679 5.0212445,12.9616685 C6.1558845,12.5730994 6.93325111,11.5250365 6.97596854,10.3264346 L6.97596854,10.3257492 Z M1.40236661,17.9648666 C1.29500181,17.9648666 1.19220579,17.9223775 1.11636515,17.8465369 C1.04075292,17.7706963 0.998030206,17.6679002 0.998030206,17.5607639 L0.998030206,15.2151864 C0.995751111,14.2326846 1.74159357,13.4098593 2.71975509,13.3155153 L3.74977158,13.1887336 C4.78458515,14.2756305 6.78682386,14.9707602 8.98254749,14.9707602 C9.08602889,15.958973 9.64798064,16.8411915 10.5000457,17.352659 C10.5169499,17.558708 10.5482456,17.7631579 10.5932474,17.9648666 L1.40236661,17.9648666 Z M6.48731998,28.4096309 L6.48731998,25.7346491 C6.48940058,24.5643732 7.38395468,23.5889529 8.54989035,23.4856999 L9.27585895,23.3493239 L12.5694444,26.3669591 C12.661504,26.4512518 12.7816612,26.4980812 12.9063871,26.4983096 C12.9415661,26.4983096 12.9767453,26.4946546 13.0110106,26.4873447 C13.0315698,26.4788925 13.0516722,26.4692982 13.0710892,26.4583333 C13.1702303,26.7306287 13.3465826,26.9682018 13.5784448,27.1420413 L12.9027321,28.9435097 L7.02119883,28.9435097 C6.87934029,28.9448556 6.74250731,28.8891173 6.64199561,28.788834 C6.54171234,28.6883223 6.48597404,28.5514894 6.48731998,28.4096309 L6.48731998,28.4096309 Z M23.4542091,25.7346491 L23.4542091,28.4096309 C23.4557749,28.5514894 23.3998081,28.6883223 23.2995249,28.788834 C23.1990132,28.8891173 23.0624087,28.9448556 22.9203216,28.9435097 L17.0387884,28.9435097 L16.3644463,27.1420413 C16.5965369,26.9682018 16.7728892,26.7306287 16.8720304,26.4583333 C16.8914474,26.4692982 16.9113213,26.4788925 16.9318805,26.4873447 C16.9663743,26.4946546 17.0015533,26.4983096 17.0367325,26.4983096 C17.1614584,26.4980812 17.2816155,26.4512518 17.3736751,26.3669591 L20.6672606,23.3500091 L21.4332054,23.4916392 C22.583379,23.6085983 23.4573739,24.5787646 23.4542091,25.7346491 L23.4542091,25.7346491 Z M28.9434969,17.5607639 C28.9434969,17.6679002 28.900996,17.7706963 28.8251553,17.8465369 C28.7493147,17.9223775 28.6465187,17.9648666 28.5393823,17.9648666 L19.3478161,17.9648666 C19.3923611,17.7661275 19.4234284,17.5646473 19.4405611,17.361568 C20.296738,16.857182 20.8607456,15.9745065 20.958973,14.985837 C20.958973,14.9728161 20.958973,14.962765 20.958973,14.9497442 C22.9767453,14.8535727 24.7685947,14.1812865 25.7202577,13.1617781 L27.2327303,13.3164291 C28.20678,13.4148849 28.9469116,14.2363395 28.9434969,15.2151864 L28.9434969,17.5607639 Z"/>
</svg>
